# Blender v3.0.1 OBJ File: 'circle.blend'
# www.blender.org
mtllib water2.mtl
o Sphere_Sphere
v 0.351793 0.013495 -1.094988
v 0.921001 0.023074 -1.508432
v 0.134382 0.028993 -1.763956
v 1.138410 -0.011580 -0.012592
v 1.707621 -0.021158 0.400845
v 1.707621 -0.002002 -0.426028
v -0.920993 0.003917 -0.681552
v -1.138412 0.019415 -1.350516
v -1.624578 0.003917 -0.681554
v -0.920993 -0.027078 0.656368
v -1.624578 -0.027078 0.656370
v -1.138412 -0.042576 1.325332
v 0.351793 -0.036656 1.069804
v 0.134382 -0.052154 1.738772
v 0.921001 -0.046234 1.483248
v 2.411211 -0.021158 0.400847
v 2.545584 -0.011580 -0.012592
v 2.411211 -0.002002 -0.426031
v 1.138426 0.038572 -2.177408
v 0.786629 0.044491 -2.432937
v 0.351796 0.044491 -2.432934
v -1.707630 0.028994 -1.763967
v -2.059425 0.023074 -1.508442
v -2.193795 0.013496 -1.094995
v -2.193795 -0.036656 1.069811
v -2.059425 -0.046234 1.483258
v -1.707630 -0.052154 1.738784
v 0.351796 -0.067652 2.407750
v 0.786629 -0.067652 2.407753
v 1.138426 -0.061732 2.152224
v 2.059425 0.023074 -1.508442
v 2.193795 0.013496 -1.094995
v 1.707630 0.028994 -1.763967
v -0.786629 0.044491 -2.432937
v -0.351796 0.044491 -2.432934
v -1.138426 0.038572 -2.177408
v -2.545584 -0.011580 -0.012592
v -2.411211 -0.002002 -0.426031
v -2.411211 -0.021158 0.400847
v -0.786629 -0.067652 2.407753
v -1.138426 -0.061732 2.152224
v -0.351796 -0.067652 2.407750
v 2.059425 -0.046234 1.483258
v 1.707630 -0.052154 1.738784
v 2.193795 -0.036656 1.069811
v 1.624578 0.003917 -0.681554
v 0.920993 0.003917 -0.681552
v 1.138412 0.019415 -1.350516
v -0.134382 0.028993 -1.763956
v -0.351793 0.013495 -1.094988
v -0.921001 0.023074 -1.508432
v -1.707621 -0.002002 -0.426028
v -1.138410 -0.011580 -0.012592
v -1.707621 -0.021158 0.400845
v -0.921001 -0.046234 1.483248
v -0.351793 -0.036656 1.069804
v -0.134382 -0.052154 1.738772
v 1.138412 -0.042576 1.325332
v 0.920993 -0.027078 0.656368
v 1.624578 -0.027078 0.656370
v 0.580657 -0.052971 1.774036
v 1.276288 -0.052971 1.774040
v 0.695621 -0.011580 -0.012592
v 0.214953 -0.026903 0.648800
v 2.094042 -0.026903 0.648804
v 1.879084 -0.011580 -0.012592
v -1.520209 -0.037161 1.091595
v -1.305256 -0.052483 1.752998
v -0.562767 -0.021050 0.396168
v 0.017884 -0.062441 2.182804
v -1.520209 0.014000 -1.116779
v -2.082980 0.004530 -0.708016
v -0.562767 -0.002111 -0.421351
v -2.082980 -0.027691 0.682833
v 0.580657 0.029810 -1.799220
v 0.017884 0.039280 -2.207988
v 0.214953 0.003742 -0.673984
v -1.305256 0.029323 -1.778182
v 2.094042 0.003742 -0.673987
v 1.276288 0.029810 -1.799223
v 2.215842 -0.037161 1.091598
v 1.735175 -0.052484 1.753007
v 2.441859 -0.021050 0.396170
v 1.143438 -0.062441 2.182814
v -0.365702 -0.068294 2.435447
v -1.143438 -0.062441 2.182814
v 0.365702 -0.068294 2.435447
v -1.735175 -0.052484 1.753007
v -2.441859 -0.021050 0.396170
v -2.441859 -0.002111 -0.421354
v -2.215842 -0.037161 1.091598
v -2.215842 0.014000 -1.116781
v -1.143438 0.039280 -2.207998
v -0.365702 0.045133 -2.460630
v -1.735175 0.029323 -1.778191
v 0.365702 0.045133 -2.460630
v 1.735175 0.029323 -1.778191
v 2.215842 0.014000 -1.116781
v 1.143438 0.039280 -2.207998
v 2.441859 -0.002111 -0.421354
v -0.017884 -0.062441 2.182804
v 1.305256 -0.052483 1.752998
v -2.094042 -0.026903 0.648804
v -1.276288 -0.052971 1.774040
v -1.276288 0.029810 -1.799223
v -2.094042 0.003742 -0.673987
v 1.305256 0.029323 -1.778182
v -0.017884 0.039280 -2.207988
v 2.082980 -0.027691 0.682833
v 2.082980 0.004530 -0.708016
v 0.562767 -0.021050 0.396168
v -0.214953 -0.026903 0.648800
v 1.520209 -0.037161 1.091595
v -0.580657 -0.052971 1.774036
v -0.695621 -0.011580 -0.012592
v -1.879084 -0.011580 -0.012592
v -0.214953 0.003742 -0.673984
v -0.580657 0.029810 -1.799220
v 0.562767 -0.002111 -0.421351
v 1.520209 0.014000 -1.116779
v 1.082695 0.006638 -0.798995
v 0.669155 0.036117 -2.071447
v 1.841985 0.019415 -1.350497
v -0.413544 0.017898 -1.285031
v -0.703561 0.038571 -2.177387
v 0.000000 -0.011580 -0.012592
v 2.165396 -0.011580 -0.012592
v 1.082695 -0.029799 0.773812
v 1.841985 -0.042575 1.325314
v -1.751844 0.017898 -1.285035
v -1.338289 -0.011580 -0.012592
v -2.276834 -0.011580 -0.012592
v -1.751844 -0.041059 1.259851
v -0.413544 -0.041059 1.259847
v -0.703561 -0.061732 2.152203
v 0.669155 -0.059277 2.046263
v 2.420998 0.006638 -0.798999
v 2.420998 -0.029799 0.773815
v 2.276834 -0.011580 -0.012592
v 0.000000 0.047377 -2.557493
v 1.496258 0.036117 -2.071460
v 0.703561 0.038571 -2.177387
v -2.420998 0.006638 -0.798999
v -1.496258 0.036117 -2.071460
v -1.841985 0.019415 -1.350497
v -1.496258 -0.059278 2.046276
v -2.420998 -0.029799 0.773815
v -1.841985 -0.042575 1.325314
v 1.496258 -0.059278 2.046276
v 0.000000 -0.070538 2.532310
v 0.703561 -0.061732 2.152203
v 1.751844 0.017898 -1.285035
v -0.669155 0.036117 -2.071447
v -2.165396 -0.011580 -0.012592
v -0.669155 -0.059277 2.046263
v 1.751844 -0.041059 1.259851
v 0.413544 0.017898 -1.285031
v 1.338289 -0.011580 -0.012592
v 0.000000 -0.011580 -0.012592
v -1.082695 0.006638 -0.798995
v -1.082695 -0.029799 0.773812
v 0.413544 -0.041059 1.259847
vt 0.000000 0.000000
vt 0.000000 0.000000
vt 0.000000 0.000000
vt 0.000000 0.000000
vt 0.000000 0.000000
vt 0.000000 0.000000
vt 0.000000 0.000000
vt 0.000000 0.000000
vt 0.000000 0.000000
vt 0.000000 0.000000
vt 0.000000 0.000000
vt 0.000000 0.000000
vt 0.000000 0.000000
vt 0.000000 0.000000
vt 0.000000 0.000000
vt 0.000000 0.000000
vt 0.000000 0.000000
vt 0.000000 0.000000
vt 0.000000 0.000000
vt 0.000000 0.000000
vt 0.000000 0.000000
vt 0.000000 0.000000
vt 0.000000 0.000000
vt 0.000000 0.000000
vt 0.000000 0.000000
vt 0.000000 0.000000
vt 0.000000 0.000000
vt 0.000000 0.000000
vt 0.000000 0.000000
vt 0.000000 0.000000
vt 0.000000 0.000000
vt 0.000000 0.000000
vt 0.000000 0.000000
vt 0.000000 0.000000
vt 0.000000 0.000000
vt 0.000000 0.000000
vt 0.000000 0.000000
vt 0.000000 0.000000
vt 0.000000 0.000000
vt 0.000000 0.000000
vt 0.000000 0.000000
vt 0.000000 0.000000
vt 0.000000 0.000000
vt 0.000000 0.000000
vt 0.000000 0.000000
vt 0.000000 0.000000
vt 0.000000 0.000000
vt 0.000000 0.000000
vt 0.000000 0.000000
vt 0.000000 0.000000
vt 0.000000 0.000000
vt 0.000000 0.000000
vt 0.000000 0.000000
vt 0.000000 0.000000
vt 0.000000 0.000000
vt 0.000000 0.000000
vt 0.000000 0.000000
vt 0.000000 0.000000
vt 0.000000 0.000000
vt 0.000000 0.000000
vt 0.000000 0.000000
vt 0.000000 0.000000
vt 0.000000 0.000000
vt 0.000000 0.000000
vt 0.000000 0.000000
vt 0.000000 0.000000
vt 0.000000 0.000000
vt 0.000000 0.000000
vt 0.000000 0.000000
vt 0.000000 0.000000
vt 0.000000 0.000000
vt 0.000000 0.000000
vt 0.000000 0.000000
vt 0.000000 0.000000
vt 0.000000 0.000000
vt 0.000000 0.000000
vt 0.000000 0.000000
vt 0.000000 0.000000
vt 0.000000 0.000000
vt 0.000000 0.000000
vt 0.000000 0.000000
vt 0.000000 0.000000
vt 0.000000 0.000000
vt 0.000000 0.000000
vt 0.000000 0.000000
vt 0.000000 0.000000
vt 0.000000 0.000000
vt 0.000000 0.000000
vt 0.000000 0.000000
vt 0.000000 0.000000
vt 0.000000 0.000000
vt 0.000000 0.000000
vt 0.000000 0.000000
vt 0.000000 0.000000
vt 0.000000 0.000000
vt 0.000000 0.000000
vt 0.000000 0.000000
vt 0.000000 0.000000
vt 0.000000 0.000000
vt 0.000000 0.000000
vt 0.000000 0.000000
vt 0.000000 0.000000
vt 0.000000 0.000000
vt 0.000000 0.000000
vt 0.000000 0.000000
vt 0.000000 0.000000
vt 0.000000 0.000000
vt 0.000000 0.000000
vt 0.000000 0.000000
vt 0.000000 0.000000
vt 0.000000 0.000000
vt 0.000000 0.000000
vt 0.000000 0.000000
vt 0.000000 0.000000
vt 0.000000 0.000000
vt 0.000000 0.000000
vt 0.000000 0.000000
vt 0.000000 0.000000
vt 0.000000 0.000000
vt 0.000000 0.000000
vt 0.000000 0.000000
vt 0.000000 0.000000
vt 0.000000 0.000000
vt 0.000000 0.000000
vt 0.000000 0.000000
vt 0.000000 0.000000
vt 0.000000 0.000000
vt 0.000000 0.000000
vt 0.000000 0.000000
vt 0.000000 0.000000
vt 0.000000 0.000000
vt 0.000000 0.000000
vt 0.000000 0.000000
vt 0.000000 0.000000
vt 0.000000 0.000000
vt 0.000000 0.000000
vt 0.000000 0.000000
vt 0.000000 0.000000
vt 0.000000 0.000000
vt 0.000000 0.000000
vt 0.000000 0.000000
vt 0.000000 0.000000
vt 0.000000 0.000000
vt 0.000000 0.000000
vt 0.000000 0.000000
vt 0.000000 0.000000
vt 0.000000 0.000000
vt 0.000000 0.000000
vt 0.000000 0.000000
vt 0.000000 0.000000
vt 0.000000 0.000000
vt 0.000000 0.000000
vt 0.000000 0.000000
vt 0.000000 0.000000
vt 0.000000 0.000000
vt 0.000000 0.000000
vt 0.000000 0.000000
vt 0.000000 0.000000
vt 0.000000 0.000000
vt 0.000000 0.000000
vt 0.000000 0.000000
vt 0.000000 0.000000
vn 0.0000 0.9997 0.0232
vn -0.0017 0.9955 0.0952
vn -0.1169 -0.9930 -0.0187
vn 0.0346 0.9993 0.0130
vn 0.0723 0.9883 -0.1341
vn 0.0941 0.2603 0.9609
vn 0.1014 -0.9948 -0.0130
vn -0.0000 -0.9997 -0.0232
vn -0.6509 0.3302 0.6836
vn -0.0023 -0.9991 -0.0419
vn 0.1149 -0.7130 -0.6917
vn 0.0341 -0.9899 0.1377
vn 0.2409 0.4812 0.8429
vn -0.0825 0.9918 0.0981
vn 0.4713 0.8820 0.0055
vn 0.1639 0.9861 0.0257
vn 0.2705 0.2401 -0.9323
vn 0.1639 -0.9860 -0.0308
vn -0.0002 0.9916 -0.1296
vn -0.0824 -0.9907 -0.1084
vn -0.0003 -0.9901 0.1405
vn -0.0068 1.0000 0.0000
usemtl Default_OBJ
s 1
f 1/1/1 2/2/1 3/3/1
f 4/4/1 5/5/1 6/6/1
f 7/7/1 8/8/1 9/9/1
f 10/10/1 11/11/1 12/12/1
f 13/13/1 14/14/1 15/15/1
f 16/16/1 17/17/2 18/18/1
f 19/19/1 20/20/3 21/21/1
f 22/22/1 23/23/4 24/24/1
f 25/25/1 26/26/5 27/27/1
f 28/28/1 29/29/6 30/30/1
f 31/31/7 32/32/8 33/33/8
f 34/34/9 35/35/8 36/36/8
f 37/37/10 38/38/8 39/39/8
f 40/40/11 41/41/8 42/42/8
f 43/43/12 44/44/8 45/45/8
f 46/46/8 47/47/8 48/48/8
f 49/49/8 50/50/8 51/51/8
f 52/52/8 53/53/8 54/54/8
f 55/55/8 56/56/8 57/57/8
f 58/58/8 59/59/8 60/60/8
f 61/61/8 58/58/8 62/62/8
f 63/63/8 59/59/8 64/64/8
f 65/65/8 60/60/8 66/66/8
f 67/67/8 55/55/8 68/68/8
f 64/64/8 56/56/8 69/69/8
f 70/70/8 57/57/8 61/61/8
f 71/71/8 52/52/8 72/72/8
f 69/69/8 53/53/8 73/73/8
f 74/74/8 54/54/8 67/67/8
f 75/75/8 49/49/8 76/76/8
f 73/73/8 50/50/8 77/77/8
f 78/78/8 51/51/8 71/71/8
f 66/66/8 46/46/8 79/79/8
f 77/77/8 47/47/8 63/63/8
f 80/80/8 48/48/8 75/75/8
f 81/81/1 82/82/1 43/43/12
f 65/65/8 83/83/8 45/45/8
f 84/84/8 62/62/8 44/44/8
f 85/85/1 86/86/1 40/40/11
f 70/70/8 87/87/8 42/42/8
f 88/88/8 68/68/8 41/41/8
f 89/89/1 90/90/1 37/37/10
f 74/74/8 91/91/8 39/39/8
f 92/92/8 72/72/8 38/38/8
f 93/93/1 94/94/1 34/34/9
f 78/78/8 95/95/8 36/36/8
f 96/96/8 76/76/8 35/35/8
f 97/97/1 98/98/1 31/31/7
f 80/80/8 99/99/8 33/33/8
f 100/100/8 79/79/8 32/32/8
f 85/85/1 28/28/1 101/101/1
f 84/84/8 29/29/6 87/87/8
f 102/102/1 30/30/1 82/82/1
f 89/89/1 25/25/1 103/103/1
f 88/88/8 26/26/5 91/91/8
f 104/104/1 27/27/1 86/86/1
f 93/93/1 22/22/1 105/105/1
f 92/92/8 23/23/4 95/95/8
f 106/106/1 24/24/1 90/90/1
f 97/97/1 19/19/1 107/107/1
f 96/96/8 20/20/3 99/99/8
f 108/108/1 21/21/1 94/94/1
f 81/81/1 16/16/1 109/109/1
f 100/100/8 17/17/2 83/83/8
f 110/110/1 18/18/1 98/98/1
f 111/111/1 112/112/1 13/13/1
f 102/102/1 113/113/1 15/15/1
f 114/114/1 101/101/1 14/14/1
f 112/112/1 115/115/1 10/10/1
f 104/104/1 114/114/1 12/12/1
f 116/116/1 103/103/1 11/11/1
f 115/115/1 117/117/1 7/7/1
f 106/106/1 116/116/1 9/9/1
f 118/118/1 105/105/1 8/8/1
f 111/111/1 4/4/1 119/119/1
f 109/109/1 5/5/1 113/113/1
f 120/120/1 6/6/1 110/110/1
f 117/117/1 119/119/1 1/1/1
f 108/108/1 118/118/1 3/3/1
f 120/120/1 107/107/1 2/2/1
f 121/121/1 120/120/1 2/2/1
f 122/122/1 2/2/1 107/107/1
f 123/123/1 107/107/1 120/120/1
f 122/122/1 108/108/1 3/3/1
f 124/124/1 3/3/1 118/118/1
f 125/125/1 118/118/1 108/108/1
f 124/124/1 117/117/1 1/1/1
f 121/121/1 1/1/1 119/119/1
f 126/126/1 119/119/1 117/117/1
f 121/121/1 6/6/1 120/120/1
f 127/127/1 110/110/1 6/6/1
f 123/123/1 120/120/1 110/110/1
f 127/127/1 5/5/1 109/109/1
f 128/128/1 113/113/1 5/5/1
f 129/129/1 109/109/1 113/113/1
f 128/128/1 4/4/1 111/111/1
f 121/121/1 119/119/1 4/4/1
f 126/126/1 111/111/1 119/119/1
f 124/124/1 118/118/1 8/8/1
f 130/130/1 8/8/1 105/105/1
f 125/125/1 105/105/1 118/118/1
f 130/130/1 106/106/1 9/9/1
f 131/131/1 9/9/1 116/116/1
f 132/132/1 116/116/1 106/106/1
f 131/131/1 115/115/1 7/7/1
f 124/124/1 7/7/1 117/117/1
f 126/126/1 117/117/1 115/115/1
f 131/131/1 116/116/1 11/11/1
f 133/133/1 11/11/1 103/103/1
f 132/132/1 103/103/1 116/116/1
f 133/133/1 104/104/1 12/12/1
f 134/134/1 12/12/1 114/114/1
f 135/135/1 114/114/1 104/104/1
f 134/134/1 112/112/1 10/10/1
f 131/131/1 10/10/1 115/115/1
f 126/126/1 115/115/1 112/112/1
f 134/134/1 114/114/1 14/14/1
f 136/136/1 14/14/1 101/101/1
f 135/135/1 101/101/1 114/114/1
f 136/136/1 102/102/1 15/15/1
f 128/128/1 15/15/1 113/113/1
f 129/129/1 113/113/1 102/102/1
f 128/128/1 111/111/1 13/13/1
f 134/134/1 13/13/1 112/112/1
f 126/126/1 112/112/1 111/111/1
f 127/127/1 18/18/1 110/110/1
f 137/137/13 98/98/1 18/18/1
f 123/123/1 110/110/1 98/98/1
f 137/137/13 17/17/2 100/100/8
f 138/138/14 83/83/8 17/17/2
f 139/139/8 100/100/8 83/83/8
f 138/138/14 16/16/1 81/81/1
f 127/127/1 109/109/1 16/16/1
f 129/129/1 81/81/1 109/109/1
f 122/122/1 21/21/1 108/108/1
f 140/140/15 94/94/1 21/21/1
f 125/125/1 108/108/1 94/94/1
f 140/140/15 20/20/3 96/96/8
f 141/141/16 99/99/8 20/20/3
f 142/142/8 96/96/8 99/99/8
f 141/141/16 19/19/1 97/97/1
f 122/122/1 107/107/1 19/19/1
f 123/123/1 97/97/1 107/107/1
f 130/130/1 24/24/1 106/106/1
f 143/143/17 90/90/1 24/24/1
f 132/132/1 106/106/1 90/90/1
f 143/143/17 23/23/4 92/92/8
f 144/144/18 95/95/8 23/23/4
f 145/145/8 92/92/8 95/95/8
f 144/144/18 22/22/1 93/93/1
f 130/130/1 105/105/1 22/22/1
f 125/125/1 93/93/1 105/105/1
f 133/133/1 27/27/1 104/104/1
f 146/146/19 86/86/1 27/27/1
f 135/135/1 104/104/1 86/86/1
f 146/146/19 26/26/5 88/88/8
f 147/147/20 91/91/8 26/26/5
f 148/148/8 88/88/8 91/91/8
f 147/147/20 25/25/1 89/89/1
f 133/133/1 103/103/1 25/25/1
f 132/132/1 89/89/1 103/103/1
f 136/136/1 30/30/1 102/102/1
f 149/149/21 82/82/1 30/30/1
f 129/129/1 102/102/1 82/82/1
f 149/149/21 29/29/6 84/84/8
f 150/150/22 87/87/8 29/29/6
f 151/151/8 84/84/8 87/87/8
f 150/150/22 28/28/1 85/85/1
f 136/136/1 101/101/1 28/28/1
f 135/135/1 85/85/1 101/101/1
f 137/137/13 100/100/8 32/32/8
f 152/152/8 32/32/8 79/79/8
f 139/139/8 79/79/8 100/100/8
f 152/152/8 80/80/8 33/33/8
f 141/141/16 33/33/8 99/99/8
f 142/142/8 99/99/8 80/80/8
f 141/141/16 97/97/1 31/31/7
f 137/137/13 31/31/7 98/98/1
f 123/123/1 98/98/1 97/97/1
f 140/140/15 96/96/8 35/35/8
f 153/153/8 35/35/8 76/76/8
f 142/142/8 76/76/8 96/96/8
f 153/153/8 78/78/8 36/36/8
f 144/144/18 36/36/8 95/95/8
f 145/145/8 95/95/8 78/78/8
f 144/144/18 93/93/1 34/34/9
f 140/140/15 34/34/9 94/94/1
f 125/125/1 94/94/1 93/93/1
f 143/143/17 92/92/8 38/38/8
f 154/154/8 38/38/8 72/72/8
f 145/145/8 72/72/8 92/92/8
f 154/154/8 74/74/8 39/39/8
f 147/147/20 39/39/8 91/91/8
f 148/148/8 91/91/8 74/74/8
f 147/147/20 89/89/1 37/37/10
f 143/143/17 37/37/10 90/90/1
f 132/132/1 90/90/1 89/89/1
f 146/146/19 88/88/8 41/41/8
f 155/155/8 41/41/8 68/68/8
f 148/148/8 68/68/8 88/88/8
f 155/155/8 70/70/8 42/42/8
f 150/150/22 42/42/8 87/87/8
f 151/151/8 87/87/8 70/70/8
f 150/150/22 85/85/1 40/40/11
f 146/146/19 40/40/11 86/86/1
f 135/135/1 86/86/1 85/85/1
f 149/149/21 84/84/8 44/44/8
f 156/156/8 44/44/8 62/62/8
f 151/151/8 62/62/8 84/84/8
f 156/156/8 65/65/8 45/45/8
f 138/138/14 45/45/8 83/83/8
f 139/139/8 83/83/8 65/65/8
f 138/138/14 81/81/1 43/43/12
f 149/149/21 43/43/12 82/82/1
f 129/129/1 82/82/1 81/81/1
f 152/152/8 48/48/8 80/80/8
f 157/157/8 75/75/8 48/48/8
f 142/142/8 80/80/8 75/75/8
f 157/157/8 47/47/8 77/77/8
f 158/158/8 63/63/8 47/47/8
f 159/159/8 77/77/8 63/63/8
f 158/158/8 46/46/8 66/66/8
f 152/152/8 79/79/8 46/46/8
f 139/139/8 66/66/8 79/79/8
f 153/153/8 51/51/8 78/78/8
f 160/160/8 71/71/8 51/51/8
f 145/145/8 78/78/8 71/71/8
f 160/160/8 50/50/8 73/73/8
f 157/157/8 77/77/8 50/50/8
f 159/159/8 73/73/8 77/77/8
f 157/157/8 49/49/8 75/75/8
f 153/153/8 76/76/8 49/49/8
f 142/142/8 75/75/8 76/76/8
f 154/154/8 54/54/8 74/74/8
f 161/161/8 67/67/8 54/54/8
f 148/148/8 74/74/8 67/67/8
f 161/161/8 53/53/8 69/69/8
f 160/160/8 73/73/8 53/53/8
f 159/159/8 69/69/8 73/73/8
f 160/160/8 52/52/8 71/71/8
f 154/154/8 72/72/8 52/52/8
f 145/145/8 71/71/8 72/72/8
f 155/155/8 57/57/8 70/70/8
f 162/162/8 61/61/8 57/57/8
f 151/151/8 70/70/8 61/61/8
f 162/162/8 56/56/8 64/64/8
f 161/161/8 69/69/8 56/56/8
f 159/159/8 64/64/8 69/69/8
f 161/161/8 55/55/8 67/67/8
f 155/155/8 68/68/8 55/55/8
f 148/148/8 67/67/8 68/68/8
f 156/156/8 60/60/8 65/65/8
f 158/158/8 66/66/8 60/60/8
f 139/139/8 65/65/8 66/66/8
f 158/158/8 59/59/8 63/63/8
f 162/162/8 64/64/8 59/59/8
f 159/159/8 63/63/8 64/64/8
f 162/162/8 58/58/8 61/61/8
f 156/156/8 62/62/8 58/58/8
f 151/151/8 61/61/8 62/62/8
f 162/162/8 59/59/8 58/58/8
f 158/158/8 60/60/8 59/59/8
f 156/156/8 58/58/8 60/60/8
f 161/161/8 56/56/8 55/55/8
f 162/162/8 57/57/8 56/56/8
f 155/155/8 55/55/8 57/57/8
f 160/160/8 53/53/8 52/52/8
f 161/161/8 54/54/8 53/53/8
f 154/154/8 52/52/8 54/54/8
f 157/157/8 50/50/8 49/49/8
f 160/160/8 51/51/8 50/50/8
f 153/153/8 49/49/8 51/51/8
f 158/158/8 47/47/8 46/46/8
f 157/157/8 48/48/8 47/47/8
f 152/152/8 46/46/8 48/48/8
f 138/138/14 43/43/12 45/45/8
f 156/156/8 45/45/8 44/44/8
f 149/149/21 44/44/8 43/43/12
f 150/150/22 40/40/11 42/42/8
f 155/155/8 42/42/8 41/41/8
f 146/146/19 41/41/8 40/40/11
f 147/147/20 37/37/10 39/39/8
f 154/154/8 39/39/8 38/38/8
f 143/143/17 38/38/8 37/37/10
f 144/144/18 34/34/9 36/36/8
f 153/153/8 36/36/8 35/35/8
f 140/140/15 35/35/8 34/34/9
f 141/141/16 31/31/7 33/33/8
f 152/152/8 33/33/8 32/32/8
f 137/137/13 32/32/8 31/31/7
f 150/150/22 29/29/6 28/28/1
f 149/149/21 30/30/1 29/29/6
f 136/136/1 28/28/1 30/30/1
f 147/147/20 26/26/5 25/25/1
f 146/146/19 27/27/1 26/26/5
f 133/133/1 25/25/1 27/27/1
f 144/144/18 23/23/4 22/22/1
f 143/143/17 24/24/1 23/23/4
f 130/130/1 22/22/1 24/24/1
f 141/141/16 20/20/3 19/19/1
f 140/140/15 21/21/1 20/20/3
f 122/122/1 19/19/1 21/21/1
f 138/138/14 17/17/2 16/16/1
f 137/137/13 18/18/1 17/17/2
f 127/127/1 16/16/1 18/18/1
f 128/128/1 13/13/1 15/15/1
f 136/136/1 15/15/1 14/14/1
f 134/134/1 14/14/1 13/13/1
f 134/134/1 10/10/1 12/12/1
f 133/133/1 12/12/1 11/11/1
f 131/131/1 11/11/1 10/10/1
f 131/131/1 7/7/1 9/9/1
f 130/130/1 9/9/1 8/8/1
f 124/124/1 8/8/1 7/7/1
f 128/128/1 5/5/1 4/4/1
f 127/127/1 6/6/1 5/5/1
f 121/121/1 4/4/1 6/6/1
f 124/124/1 1/1/1 3/3/1
f 122/122/1 3/3/1 2/2/1
f 121/121/1 2/2/1 1/1/1
